<svg xmlns="http://www.w3.org/2000/svg" viewBox="0 0 27.16 28.35"><g data-name="Layer 2"><path d="M11.8.93a2.18 2.18 0 013.57 0 4.68 4.68 0 004.55 1.48 2.18 2.18 0 012.89 2.1 4.68 4.68 0 002.81 3.87 2.18 2.18 0 011.11 3.4 4.68 4.68 0 000 4.79A2.17 2.17 0 0125.62 20a4.69 4.69 0 00-2.81 3.88 2.19 2.19 0 01-2.89 2.1 4.68 4.68 0 00-4.55 1.48 2.18 2.18 0 01-3.57 0 4.7 4.7 0 00-4.56-1.48 2.19 2.19 0 01-2.89-2.1A4.69 4.69 0 001.54 20a2.17 2.17 0 01-1.11-3.43 4.68 4.68 0 000-4.79 2.18 2.18 0 011.11-3.4 4.68 4.68 0 002.81-3.87 2.18 2.18 0 012.89-2.1A4.7 4.7 0 0011.8.93z" fill="#0f0b38" data-name="Visual Design Page"/></g></svg>