<svg xmlns="http://www.w3.org/2000/svg" viewBox="0 0 52 36"><defs><style>.cls-1{fill:#0f0b38;}</style></defs><title>photo-and-video-badgeAsset 21</title><g id="Layer_2" data-name="Layer 2"><g id="Video_Photography" data-name="Video &amp; Photography"><path class="cls-1" d="M39,7a2.37,2.37,0,0,1-2.28-2l-.44-3A2.37,2.37,0,0,0,34,0H18a2.37,2.37,0,0,0-2.28,2l-.44,3A2.37,2.37,0,0,1,13,7H2A2,2,0,0,0,0,9V34a2,2,0,0,0,2,2H50a2,2,0,0,0,2-2V9a2,2,0,0,0-2-2ZM26,33A12,12,0,1,1,38,21,12,12,0,0,1,26,33ZM47,14a2,2,0,1,1,2-2A2,2,0,0,1,47,14Z"/><circle class="cls-1" cx="26" cy="21" r="9.5"/></g></g></svg>