<svg xmlns="http://www.w3.org/2000/svg" viewBox="0 0 34.15 32"><defs><style>.cls-1{fill:#0f0b38;}.cls-2{fill:#fff;}</style></defs><title>Asset 23</title><g id="Layer_2" data-name="Layer 2"><g id="Video_Photography" data-name="Video &amp; Photography"><rect class="cls-1" width="34.15" height="32" rx="2"/><path class="cls-2" d="M4.07,28.18a13.27,13.27,0,0,1,26,0"/><path class="cls-2" d="M17.07,19.82a7.28,7.28,0,1,1,7.28-7.28A7.28,7.28,0,0,1,17.07,19.82Z"/><path class="cls-1" d="M17.07,5.76a6.78,6.78,0,1,1-6.77,6.78,6.79,6.79,0,0,1,6.77-6.78m0-1a7.78,7.78,0,1,0,7.78,7.78,7.78,7.78,0,0,0-7.78-7.78Z"/></g></g></svg>