<svg xmlns="http://www.w3.org/2000/svg" viewBox="0 0 27.16 28.35"><defs><style>.cls-1{fill:#0f0b38;}</style></defs><title>services-branding-and-identityAsset 11</title><g id="Layer_2" data-name="Layer 2"><g id="Visual_Design_Page" data-name="Visual Design Page"><path class="cls-1" d="M11.8.93a2.18,2.18,0,0,1,3.57,0,4.68,4.68,0,0,0,4.55,1.48,2.18,2.18,0,0,1,2.89,2.1,4.68,4.68,0,0,0,2.81,3.87,2.18,2.18,0,0,1,1.11,3.4,4.68,4.68,0,0,0,0,4.79A2.17,2.17,0,0,1,25.62,20a4.69,4.69,0,0,0-2.81,3.88,2.19,2.19,0,0,1-2.89,2.1,4.68,4.68,0,0,0-4.55,1.48,2.18,2.18,0,0,1-3.57,0,4.7,4.7,0,0,0-4.56-1.48,2.19,2.19,0,0,1-2.89-2.1A4.69,4.69,0,0,0,1.54,20,2.17,2.17,0,0,1,.43,16.57a4.68,4.68,0,0,0,0-4.79,2.18,2.18,0,0,1,1.11-3.4A4.68,4.68,0,0,0,4.35,4.51a2.18,2.18,0,0,1,2.89-2.1A4.7,4.7,0,0,0,11.8.93Z"/></g></g></svg>