<svg xmlns="http://www.w3.org/2000/svg" viewBox="0 0 166.49 43.66"><defs><style>.cls-1{font-size:28px;font-family:HelveticaNeue-Light, Helvetica Neue;font-weight:300;letter-spacing:-0.03em;}.cls-1,.cls-4{fill:#fff;}.cls-2{opacity:0.5;}.cls-3{font-family:HelveticaNeue-Bold, Helvetica Neue;font-weight:700;letter-spacing:-0.03em;}</style></defs><title>Asset 52</title><g id="Layer_2" data-name="Layer 2"><g id="Services"><text class="cls-1" transform="translate(51.02 30.19)"><tspan class="cls-2">side</tspan><tspan class="cls-3" x="45.89" y="0">HSTL</tspan></text><path class="cls-4" d="M20,0A20,20,0,1,0,40,20,20,20,0,0,0,20,0ZM31,20.87a10.44,10.44,0,0,1-1.65,2.91,11.91,11.91,0,0,1-2,1.94,8.41,8.41,0,0,1-1.77,1.07,3.56,3.56,0,0,1-1.06.35,1.13,1.13,0,0,1-.79-.36,1.77,1.77,0,0,1-.51-.92,4.66,4.66,0,0,1,0-1.5,15.55,15.55,0,0,1,.37-1.77c.16-.61.34-1.2.53-1.79s.38-1.11.53-1.58A9.23,9.23,0,0,0,25,18.07c.06-.29,0-.45-.06-.46a2.35,2.35,0,0,0-1,.57,8.25,8.25,0,0,0-1.07,1.12c-.35.44-.69.92-1,1.42s-.63,1-.9,1.44c-.16.68-.28,1.31-.36,1.9s-.13,1.09-.15,1.52,0,.78,0,1V27a.48.48,0,0,1-.3.11,2.24,2.24,0,0,1-.56,0,2.78,2.78,0,0,1-.61-.17,1.53,1.53,0,0,1-.51-.32,1.75,1.75,0,0,1-.34-1.06,9.83,9.83,0,0,1,0-1.93,16.52,16.52,0,0,1,.42-2.41c.12-.47.27-.94.43-1.39l-.56.19c-.63.23-1.32.52-2.05.87a12.24,12.24,0,0,0-2.09,1.24l.43-.18.5-.21.44-.17.25-.1a3.74,3.74,0,0,1,.66,1.07,2.6,2.6,0,0,1,.16,1.24,7.11,7.11,0,0,1-.53,2.17,5.81,5.81,0,0,1-.92,1.49,4.34,4.34,0,0,1-1.14.95A6.52,6.52,0,0,1,13,28.9a6.06,6.06,0,0,1-.94.23l-.53.05a2.41,2.41,0,0,1-1.31-.27,2.16,2.16,0,0,1-.76-.74,2.14,2.14,0,0,1-.31-.94,3.43,3.43,0,0,1,0-.86,6,6,0,0,1,1.08-2.44,10.28,10.28,0,0,1,1.94-2,6,6,0,0,1-.64-.49,2.8,2.8,0,0,1-.54-.6,2.67,2.67,0,0,1-.35-.82A3.27,3.27,0,0,1,10.59,19a4.34,4.34,0,0,1,.72-2.14,6.25,6.25,0,0,1,1.45-1.57,6.86,6.86,0,0,1,1.67-.94,4.26,4.26,0,0,1,1.4-.32,4.25,4.25,0,0,1,.9.11,2.61,2.61,0,0,1,.89.38,1.94,1.94,0,0,1,.64.77,2.41,2.41,0,0,1,.14,1.27,2.72,2.72,0,0,1-.11.54,4.78,4.78,0,0,1-.25.68,4.48,4.48,0,0,1-.42.72,2.61,2.61,0,0,1-.63.61,1.32,1.32,0,0,1-.81.29,1.79,1.79,0,0,1-.78-.17.9.9,0,0,1-.47-.45.57.57,0,0,1,.11-.61,2.23,2.23,0,0,1,.16-.24c.1-.12.2-.26.3-.4l.29-.43a1.64,1.64,0,0,0,.15-.32c0-.25-.07-.38-.34-.4a2.11,2.11,0,0,0-.93.23,2.93,2.93,0,0,0-.94.77,1.86,1.86,0,0,0-.43,1.23,1.23,1.23,0,0,0,.47.75l1,1c.67-.35,1.31-.65,1.94-.91s1.2-.47,1.71-.65.81-.27,1.12-.36c1.2-2.63,2.18-4.77,2.9-6.38A15.87,15.87,0,0,0,23.7,8.68c0-.13.17-.19.44-.17a1.77,1.77,0,0,1,.86.34,2.32,2.32,0,0,1,.72.93,2.4,2.4,0,0,1,0,1.56A12.27,12.27,0,0,1,25.21,13c-.21.51-.44,1-.69,1.51s-.52,1-.82,1.51-.59,1.08-.9,1.67a13.26,13.26,0,0,1,1.09-1c.39-.32.78-.61,1.18-.88a9.44,9.44,0,0,1,1.19-.67,4.92,4.92,0,0,1,1.14-.38,1.25,1.25,0,0,1,1.05.17,1.91,1.91,0,0,1,.56.76,3,3,0,0,1,.19.92,1.77,1.77,0,0,1,0,.63c0,.11-.17.35-.37.74l-.72,1.36L27.23,21c-.28.58-.52,1.1-.71,1.58a5.17,5.17,0,0,0-.35,1.17c-.05.31,0,.46.22.44a1.65,1.65,0,0,0,.65-.37,8,8,0,0,0,1-1,17.74,17.74,0,0,0,1.13-1.44,10.79,10.79,0,0,0,1-1.79q.07-.13.21,0a1.57,1.57,0,0,1,.3.38,2.76,2.76,0,0,1,.25.52A.63.63,0,0,1,31,20.87Z"/><path class="cls-4" d="M19.9,24.3v0a.15.15,0,0,1,0-.09.87.87,0,0,0-.05.13Z"/><path class="cls-4" d="M13.25,22.93a8,8,0,0,0-1,1.16,7.62,7.62,0,0,0-.76,1.33c-.22.54-.24.91-.08,1.1a.64.64,0,0,0,.71.16,2,2,0,0,0,.92-.59,2.17,2.17,0,0,0,.61-1.18,3.2,3.2,0,0,0,0-1.16A2.29,2.29,0,0,0,13.25,22.93Z"/></g></g></svg>