<svg xmlns="http://www.w3.org/2000/svg" viewBox="0 0 149.24 40"><defs><style>.cls-1{font-size:22px;font-family:HelveticaNeue-Light, Helvetica Neue;font-weight:300;}.cls-1,.cls-3{fill:#fff;}.cls-2{font-family:HelveticaNeue-Bold, Helvetica Neue;font-weight:700;letter-spacing:0em;}</style></defs><title>Asset 40</title><g id="Layer_2" data-name="Layer 2"><g id="Navigation"><text class="cls-1" transform="translate(53.47 27.83)">side<tspan class="cls-2" x="38.7" y="0">HSTL</tspan></text><path class="cls-3" d="M20,0A20,20,0,1,0,40,20,20,20,0,0,0,20,0ZM13.15,27.87H11.7a1.72,1.72,0,0,1-.61-.13,2,2,0,0,1-.67-.4,2.24,2.24,0,0,1-.55-.69,2,2,0,0,1-.22-1V22.51a1.08,1.08,0,0,0-.18-.64,1.42,1.42,0,0,0-.41-.4,1.94,1.94,0,0,0-.5-.2,1.91,1.91,0,0,0-.42-.06V19.77a2.43,2.43,0,0,0,.42,0,1.91,1.91,0,0,0,.5-.19,1.4,1.4,0,0,0,.41-.36.88.88,0,0,0,.18-.57v-3.3a2.05,2.05,0,0,1,.22-1,2.32,2.32,0,0,1,.55-.68,2,2,0,0,1,.67-.4,1.72,1.72,0,0,1,.61-.13h1.45v1.44h-.88a1,1,0,0,0-.48.1.73.73,0,0,0-.27.28,1.09,1.09,0,0,0-.12.36,2.55,2.55,0,0,0,0,.38V18.8a1.51,1.51,0,0,1-.2.8,1.57,1.57,0,0,1-.45.5,1.91,1.91,0,0,1-.55.28,2.66,2.66,0,0,1-.47.1v0a3.55,3.55,0,0,1,.47.08,1.59,1.59,0,0,1,.55.25,1.49,1.49,0,0,1,.45.53,1.85,1.85,0,0,1,.2.92v3a2.55,2.55,0,0,0,0,.38,1.23,1.23,0,0,0,.12.37.78.78,0,0,0,.27.27,1,1,0,0,0,.48.1h.88Zm4.74-13.31H17a1,1,0,0,0-.48.1.66.66,0,0,0-.27.28.77.77,0,0,0-.12.36,2.64,2.64,0,0,0,0,.38V18.8a1.51,1.51,0,0,1-.19.8,1.59,1.59,0,0,1-.46.5,1.74,1.74,0,0,1-.54.28,2.86,2.86,0,0,1-.47.1v0a3.85,3.85,0,0,1,.47.08,1.47,1.47,0,0,1,.54.25,1.51,1.51,0,0,1,.46.53,1.85,1.85,0,0,1,.19.92v3a2.64,2.64,0,0,0,0,.38.85.85,0,0,0,.12.37.7.7,0,0,0,.27.27,1,1,0,0,0,.48.1h.88v1.44H16.43a1.76,1.76,0,0,1-.61-.13,2.24,2.24,0,0,1-.67-.4,2.37,2.37,0,0,1-.54-.69,2,2,0,0,1-.22-1V22.51a1.08,1.08,0,0,0-.18-.64,1.45,1.45,0,0,0-.42-.4,1.87,1.87,0,0,0-.49-.2,1.91,1.91,0,0,0-.42-.06V19.77a2.43,2.43,0,0,0,.42,0,1.84,1.84,0,0,0,.49-.19,1.44,1.44,0,0,0,.42-.36.88.88,0,0,0,.18-.57v-3.3a2.05,2.05,0,0,1,.22-1,2.46,2.46,0,0,1,.54-.68,2.24,2.24,0,0,1,.67-.4,1.76,1.76,0,0,1,.61-.13h1.46ZM26,21.46a1.15,1.15,0,0,0-.41.35.94.94,0,0,0-.17.57v3.3a2,2,0,0,1-.22,1,2.37,2.37,0,0,1-.54.69,2.17,2.17,0,0,1-.68.4,1.67,1.67,0,0,1-.6.13H21.92V26.43h.88a1,1,0,0,0,.48-.1.7.7,0,0,0,.27-.27.85.85,0,0,0,.12-.37,2.64,2.64,0,0,0,0-.38V22.19a1.51,1.51,0,0,1,.19-.8,1.69,1.69,0,0,1,.45-.5,1.87,1.87,0,0,1,.55-.27,4.33,4.33,0,0,1,.47-.11v0a3.55,3.55,0,0,1-.47-.08,1.49,1.49,0,0,1-1-.78,1.85,1.85,0,0,1-.19-.92v-3a2.64,2.64,0,0,0,0-.38.77.77,0,0,0-.12-.36.66.66,0,0,0-.27-.28,1,1,0,0,0-.48-.1h-.88V13.12h1.46a1.67,1.67,0,0,1,.6.13,2.17,2.17,0,0,1,.68.4,2.46,2.46,0,0,1,.54.68,2.05,2.05,0,0,1,.22,1v3.17a1.17,1.17,0,0,0,.17.64,1.3,1.3,0,0,0,.41.4,1.94,1.94,0,0,0,.5.2,1.83,1.83,0,0,0,.43.05v1.44a2.16,2.16,0,0,0-.93.25Zm5.66-.25a2,2,0,0,0-.43.06,1.84,1.84,0,0,0-.49.19,1.15,1.15,0,0,0-.41.35.94.94,0,0,0-.17.57v3.3a2,2,0,0,1-.22,1,2.39,2.39,0,0,1-.55.69,2.13,2.13,0,0,1-.67.4,1.76,1.76,0,0,1-.61.13H26.66V26.43h.88a1,1,0,0,0,.48-.1.87.87,0,0,0,.27-.27,1.23,1.23,0,0,0,.12-.37c0-.14,0-.26,0-.38V22.19a1.49,1.49,0,0,1,.65-1.3,2,2,0,0,1,.54-.27l.48-.11v0a4,4,0,0,1-.48-.08,1.64,1.64,0,0,1-.54-.25,1.51,1.51,0,0,1-.46-.53,2,2,0,0,1-.19-.92v-3c0-.12,0-.24,0-.38a1.09,1.09,0,0,0-.12-.36.81.81,0,0,0-.27-.28,1,1,0,0,0-.48-.1h-.88V13.12h1.45a1.76,1.76,0,0,1,.61.13,2.13,2.13,0,0,1,.67.4,2.49,2.49,0,0,1,.55.68,2.05,2.05,0,0,1,.22,1v3.17a1.17,1.17,0,0,0,.17.64,1.3,1.3,0,0,0,.41.4,1.78,1.78,0,0,0,.92.25Z"/></g></g></svg>