<svg xmlns="http://www.w3.org/2000/svg" viewBox="0 0 112 28.21"><defs><style>.cls-1{fill:#fff;}</style></defs><title>Asset 42</title><g id="Layer_2" data-name="Layer 2"><g id="Visual_Design_Page" data-name="Visual Design Page"><path class="cls-1" d="M23.27.64V11H34.19V.64h5.93v27H34.19V16H23.27V27.61H17.34V.64Z"/><path class="cls-1" d="M49.87,21a4.22,4.22,0,0,0,1.3,1.53,5.59,5.59,0,0,0,1.91.87,8.91,8.91,0,0,0,2.26.28,11.48,11.48,0,0,0,1.7-.13,6,6,0,0,0,1.7-.51,3.66,3.66,0,0,0,1.32-1,2.56,2.56,0,0,0,.53-1.68,2.34,2.34,0,0,0-.7-1.77,5.45,5.45,0,0,0-1.83-1.14,18.71,18.71,0,0,0-2.57-.79q-1.43-.34-2.91-.75a27.13,27.13,0,0,1-2.94-.93,10,10,0,0,1-2.57-1.42,6.43,6.43,0,0,1-1.83-2.17,6.54,6.54,0,0,1-.7-3.15,7,7,0,0,1,.89-3.61A8,8,0,0,1,47.75,2,10.2,10.2,0,0,1,51,.49,13.72,13.72,0,0,1,54.62,0a17.36,17.36,0,0,1,4.06.47A10.35,10.35,0,0,1,62.14,2a7.79,7.79,0,0,1,2.4,2.7,8.34,8.34,0,0,1,.89,4H59.69a5,5,0,0,0-.51-2A3.33,3.33,0,0,0,58,5.44a4.76,4.76,0,0,0-1.64-.64,9.83,9.83,0,0,0-2-.19,7,7,0,0,0-1.44.15,3.92,3.92,0,0,0-1.3.53,3.19,3.19,0,0,0-1,.94,2.57,2.57,0,0,0-.38,1.44A2.43,2.43,0,0,0,50.58,9a2.71,2.71,0,0,0,1.19.91,15.06,15.06,0,0,0,2.46.83c1,.28,2.41.63,4.1,1.06.5.1,1.2.28,2.09.54a10.09,10.09,0,0,1,2.66,1.27,7.92,7.92,0,0,1,2.29,2.32,6.63,6.63,0,0,1,1,3.72A8.37,8.37,0,0,1,65.62,23a7.44,7.44,0,0,1-2.14,2.74A10.18,10.18,0,0,1,60,27.57a16.57,16.57,0,0,1-4.85.64,17.3,17.3,0,0,1-4.33-.54A11,11,0,0,1,47.09,26a8.5,8.5,0,0,1-2.55-3,8.92,8.92,0,0,1-.91-4.3h5.74A4.92,4.92,0,0,0,49.87,21Z"/><path class="cls-1" d="M67.73,5.63v-5h22.1v5H81.74v22H75.81v-22Z"/><path class="cls-1" d="M98.85.64v22H112v5H92.92V.64Z"/><path class="cls-1" d="M4.73,22.65a1.82,1.82,0,0,0-.56.47,1.94,1.94,0,0,0-.32.68,3,3,0,0,0-.11.81,3.91,3.91,0,0,0,.07.67,2.17,2.17,0,0,0,.24.63,1.38,1.38,0,0,0,.44.46,1.24,1.24,0,0,0,.66.17,1,1,0,0,0,.57-.17A1.57,1.57,0,0,0,6.11,26a3.1,3.1,0,0,0,.26-.55,5.48,5.48,0,0,0,.16-.56l.31-1.33a3.84,3.84,0,0,1,.23-.85,2.57,2.57,0,0,1,.43-.74,2,2,0,0,1,1.6-.74,2.06,2.06,0,0,1,1.14.3,2.54,2.54,0,0,1,.76.77,3.22,3.22,0,0,1,.42,1.06,5.71,5.71,0,0,1,.13,1.15,3.7,3.7,0,0,1-.69,2.34,2.9,2.9,0,0,1-2.18,1v-1a2,2,0,0,0,1.53-.74,2.7,2.7,0,0,0,.51-1.67,3.33,3.33,0,0,0-.08-.76,2.23,2.23,0,0,0-.27-.72,1.82,1.82,0,0,0-.48-.55,1.22,1.22,0,0,0-.72-.21,1.13,1.13,0,0,0-.61.15,1.24,1.24,0,0,0-.42.4,2.58,2.58,0,0,0-.27.58,5.46,5.46,0,0,0-.19.66l-.29,1.29a6.79,6.79,0,0,1-.29.9,2.77,2.77,0,0,1-.41.72,1.81,1.81,0,0,1-.61.49,2.09,2.09,0,0,1-.88.17,1.93,1.93,0,0,1-1.06-.28,2,2,0,0,1-.71-.72,3.32,3.32,0,0,1-.4-1,4.57,4.57,0,0,1-.13-1.09,4.26,4.26,0,0,1,.16-1.15,2.76,2.76,0,0,1,.49-.93,2.43,2.43,0,0,1,.83-.65,3.1,3.1,0,0,1,1.16-.26v1A2.19,2.19,0,0,0,4.73,22.65Z"/><path class="cls-1" d="M0,18.72H1.6v1H0Zm3.14,0h8.18v1H3.14Z"/><path class="cls-1" d="M11.32,10.52H9.77v0a2.6,2.6,0,0,1,.73.47,3,3,0,0,1,.56.71,3.4,3.4,0,0,1,.36.85,3.48,3.48,0,0,1,.13.89,3.73,3.73,0,0,1-.34,1.63,3.29,3.29,0,0,1-.94,1.15,4.24,4.24,0,0,1-1.38.68,6,6,0,0,1-1.66.22,5.93,5.93,0,0,1-1.65-.22,4,4,0,0,1-1.38-.68,3.32,3.32,0,0,1-1-1.15,3.59,3.59,0,0,1-.35-1.63A3.8,3.8,0,0,1,3,12.58a3.3,3.3,0,0,1,.34-.82,3.37,3.37,0,0,1,.57-.68,2.56,2.56,0,0,1,.77-.45v0H0v-1H11.32ZM8.49,16a3.63,3.63,0,0,0,1.12-.47,2.57,2.57,0,0,0,.8-.84,2.26,2.26,0,0,0,.31-1.22,2.58,2.58,0,0,0-1.11-2.23,3.44,3.44,0,0,0-1.12-.49,5.3,5.3,0,0,0-1.26-.15A5.42,5.42,0,0,0,6,10.75a3.44,3.44,0,0,0-1.12.49,2.86,2.86,0,0,0-.8.89,2.76,2.76,0,0,0-.31,1.34,2.35,2.35,0,0,0,.31,1.22,2.79,2.79,0,0,0,.8.84A3.63,3.63,0,0,0,6,16a5.42,5.42,0,0,0,1.26.15A5.3,5.3,0,0,0,8.49,16Z"/><path class="cls-1" d="M8.62,7a3.1,3.1,0,0,0,1-.48,2.67,2.67,0,0,0,.76-.84,2.37,2.37,0,0,0,.3-1.22,2.46,2.46,0,0,0-.57-1.72,3,3,0,0,0-1.52-.85v-1A4,4,0,0,1,10.79,2a3.53,3.53,0,0,1,.76,2.41,3.92,3.92,0,0,1-.34,1.67,3.12,3.12,0,0,1-.94,1.15,4.2,4.2,0,0,1-1.38.66,6.4,6.4,0,0,1-1.66.21A6,6,0,0,1,5.65,7.9a4.35,4.35,0,0,1-1.39-.66,3.22,3.22,0,0,1-1-1.15A3.52,3.52,0,0,1,2.9,4.42a3.43,3.43,0,0,1,.4-1.69,3.32,3.32,0,0,1,1-1.13A4.42,4.42,0,0,1,5.81,1,6.41,6.41,0,0,1,7.5.82V7.11A4.49,4.49,0,0,0,8.62,7ZM5.57,2a3,3,0,0,0-.93.52A2.45,2.45,0,0,0,4,3.34a2.33,2.33,0,0,0-.25,1.08A2.4,2.4,0,0,0,4,5.51a2.45,2.45,0,0,0,.65.81,3.19,3.19,0,0,0,.94.53,4.48,4.48,0,0,0,1.08.26V1.81A4,4,0,0,0,5.57,2Z"/></g></g></svg>