<svg xmlns="http://www.w3.org/2000/svg" viewBox="0 0 171.4 40"><defs><style>.cls-2{fill:#fff}</style></defs><g id="Layer_2" data-name="Layer 2"><g id="Services"><path d="M53.1 25.4a4.37 4.37 0 00.44 1.78 4.43 4.43 0 001 1.31 4.25 4.25 0 001.47.83 5.6 5.6 0 001.82.28 8.92 8.92 0 001.49-.13 4.89 4.89 0 001.52-.47 3 3 0 001.16-.93 2.47 2.47 0 00.45-1.52 2.24 2.24 0 00-.73-1.82 5 5 0 00-1.83-.95 17.7 17.7 0 00-2.38-.55 12.38 12.38 0 01-2.38-.63 4.92 4.92 0 01-1.84-1.19 3.17 3.17 0 01-.72-2.25 3.11 3.11 0 01.43-1.78 3.59 3.59 0 011.22-1.14 5.43 5.43 0 011.67-.6 9.56 9.56 0 011.84-.18 8.28 8.28 0 012.1.25 4.63 4.63 0 011.7.81A4 4 0 0162.66 18a5 5 0 01.4 2.1H62a4.09 4.09 0 00-.32-1.68 3 3 0 00-.9-1.13 3.82 3.82 0 00-1.36-.65 6.44 6.44 0 00-1.68-.21 8.3 8.3 0 00-1.47.14 4.67 4.67 0 00-1.33.48 2.87 2.87 0 00-1 .87 2.16 2.16 0 00-.38 1.29 2.22 2.22 0 00.42 1.4 3 3 0 001.11.85 7.72 7.72 0 001.54.52l1.72.39c.71.13 1.37.28 2 .46a5.49 5.49 0 011.62.73 3.25 3.25 0 011.08 1.19 3.9 3.9 0 01.39 1.85 3.24 3.24 0 01-.44 1.88 4.13 4.13 0 01-1.34 1.22 5.65 5.65 0 01-1.81.64 10.86 10.86 0 01-1.94.18 7.64 7.64 0 01-2.29-.32 5 5 0 01-1.83-1 4.67 4.67 0 01-1.23-1.61A5.41 5.41 0 0152 25.4zm13.21-12.32V10.2h1.07v2.88zm0 17.11V15.8h1.07v14.39zm15.57-3.08h-.06a6.44 6.44 0 01-2.24 2.56 6.72 6.72 0 01-6.07.24 5.43 5.43 0 01-1.93-1.65 7.07 7.07 0 01-1.12-2.4 10.58 10.58 0 01-.37-2.86 11 11 0 01.39-3 7 7 0 011.19-2.4 5.73 5.73 0 012-1.59 6.37 6.37 0 012.82-.59 6.19 6.19 0 011.71.24 6.05 6.05 0 011.56.68A5.08 5.08 0 0181 17.5a4.74 4.74 0 01.82 1.5h.06v-8.8h1.06v20h-1.06zm-5.35 2.49a4.77 4.77 0 002.37-.6 5.09 5.09 0 001.65-1.48 6.45 6.45 0 001-2.12 9 9 0 00.3-2.4 9.1 9.1 0 00-.32-2.45 6.9 6.9 0 00-1-2.13 4.89 4.89 0 00-1.66-1.5 5 5 0 00-2.4-.56 5.07 5.07 0 00-2.43.55 4.82 4.82 0 00-1.64 1.49 6.25 6.25 0 00-1 2.13 10.23 10.23 0 00-.24 2.47 9.1 9.1 0 00.32 2.45 6.39 6.39 0 001 2.11 4.79 4.79 0 001.66 1.47 5 5 0 002.39.57zm10.19-6.47v.17a8.72 8.72 0 00.34 2.41 6.21 6.21 0 001 2 4.8 4.8 0 001.65 1.38 5.18 5.18 0 002.32.5 5 5 0 003.43-1.13 6 6 0 001.74-3.15h1.06a6.43 6.43 0 01-2.06 3.86 6.21 6.21 0 01-4.2 1.35 6.37 6.37 0 01-2.77-.52 5.69 5.69 0 01-2-1.57A6.6 6.6 0 0186.05 26a10.59 10.59 0 01-.39-2.93 9.9 9.9 0 01.41-2.89 7.25 7.25 0 011.21-2.44A6.46 6.46 0 0194.86 16a5.5 5.5 0 011.94 1.53 6.59 6.59 0 011.2 2.26 8.92 8.92 0 01.41 2.73v.61zm10.59-.92a8.89 8.89 0 00-.39-2.21 5.7 5.7 0 00-1-1.85 5.08 5.08 0 00-1.6-1.27 4.69 4.69 0 00-2.15-.48 5.09 5.09 0 00-2.27.49 5.19 5.19 0 00-1.66 1.29 5.63 5.63 0 00-1 1.86 9.07 9.07 0 00-.45 2.19z" opacity=".5" fill="#fff"/><path class="cls-2" d="M105.62 10.2v7.67h8.1V10.2h4.39v20h-4.39v-8.64h-8.1v8.63h-4.39v-20zm19.72 15.06a3.12 3.12 0 001 1.13 4.12 4.12 0 001.42.65 6.67 6.67 0 001.68.21 8.19 8.19 0 001.26-.1 4.59 4.59 0 001.26-.38 2.85 2.85 0 001-.77 1.92 1.92 0 00.39-1.24 1.74 1.74 0 00-.52-1.32 4 4 0 00-1.36-.84 14.29 14.29 0 00-1.9-.59c-.71-.17-1.43-.35-2.16-.56a18.34 18.34 0 01-2.18-.68 7.49 7.49 0 01-1.91-1.05 4.74 4.74 0 01-1.87-3.95 5.25 5.25 0 01.66-2.68 6 6 0 011.72-1.89 7.73 7.73 0 012.41-1.12 10.29 10.29 0 012.68-.36 12.86 12.86 0 013 .35 7.57 7.57 0 012.57 1.13 5.71 5.71 0 011.77 2 6.1 6.1 0 01.66 2.95h-4.25a3.61 3.61 0 00-.38-1.48 2.49 2.49 0 00-.86-.93 3.6 3.6 0 00-1.21-.47 7.08 7.08 0 00-1.5-.14 4.86 4.86 0 00-1.07.11 2.7 2.7 0 00-1 .39 2.53 2.53 0 00-.72.7 1.92 1.92 0 00-.28 1.06 1.82 1.82 0 00.23 1 2 2 0 00.88.67 11.21 11.21 0 001.82.61l3 .79c.37.07.89.21 1.55.4a7.74 7.74 0 012 .94 6 6 0 011.69 1.72 4.88 4.88 0 01.71 2.76 6 6 0 01-.53 2.52 5.52 5.52 0 01-1.58 2 7.68 7.68 0 01-2.6 1.33 12.26 12.26 0 01-3.6.48 12.73 12.73 0 01-3.21-.41 8.21 8.21 0 01-2.73-1.2 6.16 6.16 0 01-1.89-2.22 6.53 6.53 0 01-.67-3.19H125a3.6 3.6 0 00.34 1.67zm13.24-11.37V10.2H155v3.69h-6v16.3h-4.4v-16.3zm23.07-3.69v16.29h9.75v3.7h-14.15v-20zM20 0a20 20 0 1020 20A20 20 0 0020 0zm11 20.87a10.44 10.44 0 01-1.65 2.91 11.91 11.91 0 01-2 1.94 8.41 8.41 0 01-1.77 1.07 3.56 3.56 0 01-1.06.35 1.13 1.13 0 01-.79-.36 1.77 1.77 0 01-.51-.92 4.66 4.66 0 010-1.5 15.55 15.55 0 01.37-1.77c.16-.61.34-1.2.53-1.79s.38-1.11.53-1.58a9.23 9.23 0 00.35-1.15c.06-.29 0-.45-.06-.46a2.35 2.35 0 00-1 .57 8.25 8.25 0 00-1.07 1.12c-.35.44-.69.92-1 1.42s-.63 1-.9 1.44c-.16.68-.28 1.31-.36 1.9s-.13 1.09-.15 1.52 0 .78 0 1V27a.48.48 0 01-.3.11 2.24 2.24 0 01-.56 0 2.78 2.78 0 01-.61-.17 1.53 1.53 0 01-.51-.32 1.75 1.75 0 01-.34-1.06 9.83 9.83 0 010-1.93 16.52 16.52 0 01.42-2.41 16 16 0 01.43-1.39l-.56.19c-.63.23-1.32.52-2.05.87a12.24 12.24 0 00-2.09 1.24l.43-.18.5-.21.44-.17.25-.1a3.74 3.74 0 01.66 1.07 2.6 2.6 0 01.16 1.24 7.11 7.11 0 01-.53 2.17 5.81 5.81 0 01-.92 1.49 4.34 4.34 0 01-1.14.95 6.52 6.52 0 01-1.14.51 6.06 6.06 0 01-.94.23l-.53.05a2.41 2.41 0 01-1.31-.27 2.16 2.16 0 01-.76-.74 2.14 2.14 0 01-.31-.94 3.43 3.43 0 010-.86 6 6 0 011.08-2.44 10.28 10.28 0 011.94-2 6 6 0 01-.64-.49 2.8 2.8 0 01-.54-.6 2.67 2.67 0 01-.35-.82 3.27 3.27 0 01-.05-1.02 4.34 4.34 0 01.72-2.14 6.25 6.25 0 011.45-1.57 6.86 6.86 0 011.67-.94 4.26 4.26 0 011.4-.32 4.25 4.25 0 01.9.11 2.61 2.61 0 01.89.38 1.94 1.94 0 01.64.77 2.41 2.41 0 01.14 1.27 2.72 2.72 0 01-.11.54 4.78 4.78 0 01-.25.68 4.48 4.48 0 01-.42.72 2.61 2.61 0 01-.63.61 1.32 1.32 0 01-.81.29 1.79 1.79 0 01-.78-.17.9.9 0 01-.47-.45.57.57 0 01.11-.61 2.23 2.23 0 01.16-.24c.1-.12.2-.26.3-.4l.29-.43a1.64 1.64 0 00.15-.32c0-.25-.07-.38-.34-.4a2.11 2.11 0 00-.93.23 2.93 2.93 0 00-.94.77 1.86 1.86 0 00-.43 1.23 1.23 1.23 0 00.47.75l1 1c.67-.35 1.31-.65 1.94-.91s1.2-.47 1.71-.65.81-.27 1.12-.36c1.2-2.63 2.18-4.77 2.9-6.38a15.87 15.87 0 001.26-3.38c0-.13.17-.19.44-.17a1.77 1.77 0 01.86.34 2.32 2.32 0 01.72.93 2.4 2.4 0 010 1.56 12.27 12.27 0 01-.51 1.66c-.21.51-.44 1-.69 1.51s-.52 1-.82 1.51-.59 1.08-.9 1.67a13.26 13.26 0 011.09-1c.39-.32.78-.61 1.18-.88a9.44 9.44 0 011.19-.67 4.92 4.92 0 011.14-.38 1.25 1.25 0 011.05.17 1.91 1.91 0 01.56.76 3 3 0 01.19.92 1.77 1.77 0 010 .63c0 .11-.17.35-.37.74l-.72 1.36-.88 1.66c-.28.58-.52 1.1-.71 1.58a5.17 5.17 0 00-.35 1.17c-.05.31 0 .46.22.44a1.65 1.65 0 00.65-.37 8 8 0 001-1 17.74 17.74 0 001.13-1.44 10.79 10.79 0 001-1.79q.07-.13.21 0a1.57 1.57 0 01.3.38 2.76 2.76 0 01.25.52.63.63 0 01.07.38z"/><path class="cls-2" d="M19.9 24.3a.15.15 0 010-.09.87.87 0 00-.05.13zm-6.65-1.37a8 8 0 00-1 1.16 7.62 7.62 0 00-.76 1.33c-.22.54-.24.91-.08 1.1a.64.64 0 00.71.16 2 2 0 00.92-.59 2.17 2.17 0 00.61-1.18 3.2 3.2 0 000-1.16 2.29 2.29 0 00-.4-.82z"/></g></g></svg>