<svg xmlns="http://www.w3.org/2000/svg" viewBox="0 0 171.93 43.66"><defs><style>.cls-3{fill:#fff}</style></defs><g id="Layer_2" data-name="Layer 2"><g id="Services"><text transform="translate(51.02 30.19)" fill="#fff" font-size="28" font-family="HelveticaNeue-Thin,Helvetica Neue" font-weight="200">side<tspan x="48.27" y="0" font-family="HelveticaNeue-Bold,Helvetica Neue" font-weight="700">HSTL</tspan></text><path class="cls-3" d="M20 0a20 20 0 1020 20A20 20 0 0020 0zm11 20.87a10.44 10.44 0 01-1.65 2.91 11.91 11.91 0 01-2 1.94 8.41 8.41 0 01-1.77 1.07 3.56 3.56 0 01-1.06.35 1.13 1.13 0 01-.79-.36 1.77 1.77 0 01-.51-.92 4.66 4.66 0 010-1.5 15.55 15.55 0 01.37-1.77c.16-.61.34-1.2.53-1.79s.38-1.11.53-1.58a9.23 9.23 0 00.35-1.15c.06-.29 0-.45-.06-.46a2.35 2.35 0 00-1 .57 8.25 8.25 0 00-1.07 1.12c-.35.44-.69.92-1 1.42s-.63 1-.9 1.44c-.16.68-.28 1.31-.36 1.9s-.13 1.09-.15 1.52 0 .78 0 1V27a.48.48 0 01-.3.11 2.24 2.24 0 01-.56 0 2.78 2.78 0 01-.61-.17 1.53 1.53 0 01-.51-.32 1.75 1.75 0 01-.34-1.06 9.83 9.83 0 010-1.93 16.52 16.52 0 01.42-2.41 16 16 0 01.43-1.39l-.56.19c-.63.23-1.32.52-2.05.87a12.24 12.24 0 00-2.09 1.24l.43-.18.5-.21.44-.17.25-.1a3.74 3.74 0 01.66 1.07 2.6 2.6 0 01.16 1.24 7.11 7.11 0 01-.53 2.17 5.81 5.81 0 01-.92 1.49 4.34 4.34 0 01-1.14.95 6.52 6.52 0 01-1.14.51 6.06 6.06 0 01-.94.23l-.53.05a2.41 2.41 0 01-1.31-.27 2.16 2.16 0 01-.76-.74 2.14 2.14 0 01-.31-.94 3.43 3.43 0 010-.86 6 6 0 011.08-2.44 10.28 10.28 0 011.94-2 6 6 0 01-.64-.49 2.8 2.8 0 01-.54-.6 2.67 2.67 0 01-.35-.82 3.27 3.27 0 01-.05-1.02 4.34 4.34 0 01.72-2.14 6.25 6.25 0 011.45-1.57 6.86 6.86 0 011.67-.94 4.26 4.26 0 011.4-.32 4.25 4.25 0 01.9.11 2.61 2.61 0 01.89.38 1.94 1.94 0 01.64.77 2.41 2.41 0 01.14 1.27 2.72 2.72 0 01-.11.54 4.78 4.78 0 01-.25.68 4.48 4.48 0 01-.42.72 2.61 2.61 0 01-.63.61 1.32 1.32 0 01-.81.29 1.79 1.79 0 01-.78-.17.9.9 0 01-.47-.45.57.57 0 01.11-.61 2.23 2.23 0 01.16-.24c.1-.12.2-.26.3-.4l.29-.43a1.64 1.64 0 00.15-.32c0-.25-.07-.38-.34-.4a2.11 2.11 0 00-.93.23 2.93 2.93 0 00-.94.77 1.86 1.86 0 00-.43 1.23 1.23 1.23 0 00.47.75l1 1c.67-.35 1.31-.65 1.94-.91s1.2-.47 1.71-.65.81-.27 1.12-.36c1.2-2.63 2.18-4.77 2.9-6.38a15.87 15.87 0 001.26-3.38c0-.13.17-.19.44-.17a1.77 1.77 0 01.86.34 2.32 2.32 0 01.72.93 2.4 2.4 0 010 1.56 12.27 12.27 0 01-.51 1.66c-.21.51-.44 1-.69 1.51s-.52 1-.82 1.51-.59 1.08-.9 1.67a13.26 13.26 0 011.09-1c.39-.32.78-.61 1.18-.88a9.44 9.44 0 011.19-.67 4.92 4.92 0 011.14-.38 1.25 1.25 0 011.05.17 1.91 1.91 0 01.56.76 3 3 0 01.19.92 1.77 1.77 0 010 .63c0 .11-.17.35-.37.74l-.72 1.36-.88 1.66c-.28.58-.52 1.1-.71 1.58a5.17 5.17 0 00-.35 1.17c-.05.31 0 .46.22.44a1.65 1.65 0 00.65-.37 8 8 0 001-1 17.74 17.74 0 001.13-1.44 10.79 10.79 0 001-1.79q.07-.13.21 0a1.57 1.57 0 01.3.38 2.76 2.76 0 01.25.52.63.63 0 01.07.38z"/><path class="cls-3" d="M19.9 24.3a.15.15 0 010-.09.87.87 0 00-.05.13zm-6.65-1.37a8 8 0 00-1 1.16 7.62 7.62 0 00-.76 1.33c-.22.54-.24.91-.08 1.1a.64.64 0 00.71.16 2 2 0 00.92-.59 2.17 2.17 0 00.61-1.18 3.2 3.2 0 000-1.16 2.29 2.29 0 00-.4-.82z"/></g></g></svg>